<?xml version="1.0" encoding="UTF-8"?>
<svg width="49px" height="51px" viewBox="0 0 49 51" version="1.1" xmlns="http://www.w3.org/2000/svg" xmlns:xlink="http://www.w3.org/1999/xlink">
    <!-- Generator: Sketch 48.1 (47250) - http://www.bohemiancoding.com/sketch -->
    <title>agr</title>
    <desc>Created with Sketch.</desc>
    <defs>
        <polygon id="path-1" points="29.3273165 49.5339985 0.00111852768 49.5339985 0.00111852768 0.400353016 29.3273165 0.400353016"></polygon>
    </defs>
    <g id="Mobile" stroke="none" stroke-width="1" fill="none" fill-rule="evenodd" transform="translate(-63.000000, -55.000000)">
        <g id="agr" transform="translate(63.000000, 55.000000)">
            <g id="Group-14" transform="translate(0.000000, 0.526942)">
                <g id="Group-4" transform="translate(0.000000, 0.798948)">
                    <mask id="mask-2" fill="white">
                        <use xlink:href="#path-1"></use>
                    </mask>
                    <g id="Clip-3"></g>
                    <path d="M13.1350304,46.2791628 C7.16209255,42.9427545 2.84697253,37.4811436 0.981428147,30.8994071 C0.325491556,28.5824569 0.00111852768,26.2223635 0.00111852768,23.8806459 C0.00111852768,19.5663249 1.10206935,15.3015386 3.26402357,11.4314328 C6.04995645,6.4420004 10.3243301,2.61503783 15.4943248,0.400353016 C11.3765451,2.8938708 8.00018936,6.48114887 5.74795397,10.8426079 C3.79852001,14.6168399 2.80942196,18.7418102 2.80942196,22.9003363 C2.80942196,25.3091656 3.14018658,27.7299791 3.81210213,30.097263 C5.64009595,36.5543635 9.8138021,42.0159744 15.5598386,45.4770187 C19.7639048,48.0064891 24.5152506,49.291997 29.3273165,49.2584412 C23.7682339,50.080559 18.1228649,49.0642967 13.1350304,46.2791628" id="Fill-2" fill="#FEFEFE" mask="url(#mask-2)"></path>
                </g>
                <g id="Group-7" transform="translate(4.000000, 0.000000)" fill="#FEFEFE">
                    <path d="M0.696937427,23.9218717 C0.696937427,14.5789697 6.32313167,5.72981785 15.5262177,2.09460288 C21.3489532,-0.203971513 27.7173705,-0.0969124343 33.4610101,2.39420851 C38.257896,4.47467 42.1319965,8.01560906 44.6207206,12.517683 C41.9730058,8.99831553 38.3977119,6.25312901 34.2216089,4.60010489 C28.513922,2.34307581 22.2253995,2.34307581 16.5145168,4.59850699 C10.8020361,6.85313922 6.21127891,11.1506824 3.58513569,16.7001776 C2.03996959,19.9654795 1.25779916,23.483249 1.25779916,27.0122039 C1.25779916,27.8974386 1.32491083,28.7802766 1.42318147,29.6639134 C0.938219827,27.7552258 0.696937427,25.8281624 0.696937427,23.9218717" id="Fill-5"></path>
                </g>
                <path d="M20.3895612,27.7083276 C20.3895612,27.4334893 20.1650568,27.2089848 19.8910175,27.2089848 L14.7873354,27.2089848 C14.5140951,27.2089848 14.2895906,27.4334893 14.2895906,27.7083276 L14.2895906,28.9554859 C14.2895906,29.2279273 14.5140951,29.4532307 14.7873354,29.4532307 L19.8910175,29.4532307 C20.1650568,29.4532307 20.3895612,29.2279273 20.3895612,28.9554859 L20.3895612,27.7083276 Z M23.2106479,30.8226282 C23.2106479,31.0974664 22.9861434,31.3219709 22.712903,31.3219709 L12.3185851,31.3219709 C12.0453447,31.3219709 11.8200413,31.0974664 11.8200413,30.8226282 L11.8200413,25.8387884 C11.8200413,25.5639502 12.0453447,25.3394457 12.3185851,25.3394457 L19.8910175,25.3394457 C20.1650568,25.3394457 20.3895612,25.1165391 20.3895612,24.8417009 L20.3895612,24.6523501 C20.3895612,24.3783109 20.1650568,24.1530074 19.8910175,24.1530074 L12.3185851,24.1530074 C12.0453447,24.1530074 11.8200413,23.9285029 11.8200413,23.6552626 L11.8200413,22.782811 C11.8200413,22.5079728 12.0453447,22.2850662 12.3185851,22.2850662 L22.712903,22.2850662 C22.9861434,22.2850662 23.2106479,22.5079728 23.2106479,22.782811 L23.2106479,30.8226282 Z" id="Fill-8" fill="#FEFEFE"></path>
                <path d="M32.4564776,29.4529112 C32.7313158,29.4529112 32.9542224,29.2268088 32.9542224,28.9535685 L32.9542224,24.6520306 C32.9542224,24.3779913 32.7313158,24.1526878 32.4564776,24.1526878 L27.3535945,24.1526878 C27.0803542,24.1526878 26.8542518,24.3779913 26.8542518,24.6520306 L26.8542518,28.9535685 C26.8542518,29.2268088 27.0803542,29.4529112 27.3535945,29.4529112 L32.4564776,29.4529112 Z M35.4245707,34.5821595 C35.4245707,34.8569978 35.2000662,35.0815023 34.9260269,35.0815023 L24.8840452,35.0815023 C24.6100059,35.0815023 24.3863003,34.8569978 24.3863003,34.5821595 L24.3863003,33.7113058 C24.3863003,33.4364676 24.6100059,33.2119631 24.8840452,33.2119631 L32.4564776,33.2119631 C32.7313158,33.2119631 32.9542224,32.9890565 32.9542224,32.7126204 L32.9542224,31.8201951 C32.9542224,31.5453569 32.7313158,31.3224503 32.4564776,31.3224503 L24.8840452,31.3224503 C24.6100059,31.3224503 24.3863003,31.0979458 24.3863003,30.8231076 L24.3863003,22.7824914 C24.3863003,22.5084521 24.6100059,22.2847466 24.8840452,22.2847466 L34.9260269,22.2847466 C35.2000662,22.2847466 35.4245707,22.5084521 35.4245707,22.7824914 L35.4245707,34.5821595 Z" id="Fill-10" fill="#FEFEFE"></path>
                <path d="M47.9766883,22.782811 C47.9766883,22.5079728 47.7529828,22.2834683 47.4781446,22.2834683 L37.0982077,22.2834683 C36.8233694,22.2834683 36.5996639,22.5079728 36.5996639,22.782811 L36.5996639,30.8202314 C36.5996639,31.0958685 36.8233694,31.321172 37.0982077,31.321172 L38.5698705,31.321172 C38.8439098,31.321172 39.0692132,31.0958685 39.0692132,30.8202314 L39.0692132,24.6523501 C39.0692132,24.3783109 39.2937177,24.1530074 39.5669581,24.1530074 L47.4781446,24.1402242 C47.7529828,24.1402242 47.9766883,23.9157198 47.9766883,23.6408815 L47.9766883,22.782811 Z" id="Fill-12" fill="#FEFEFE"></path>
            </g>
        </g>
    </g>
</svg>