<svg xmlns="http://www.w3.org/2000/svg" width="21" height="17" viewBox="0 0 21 17">
    <path fill="#FFF" fill-rule="evenodd" d="M14.238.527A1.753 1.753 0 0 0 12.95 0c-.508 0-.937.176-1.289.527-.351.352-.527.801-.527 1.348s.176.996.527 1.348l2.871 2.93H1.816c-.507 0-.937.185-1.289.556C.176 7.08 0 7.519 0 8.027s.176.948.527 1.319c.352.37.782.556 1.29.556H14.53l-2.812 2.93c-.352.352-.528.8-.528 1.348 0 .547.176.996.528 1.347a1.72 1.72 0 0 0 1.26.528 1.72 1.72 0 0 0 1.26-.528l5.859-6.21c.351-.352.527-.782.527-1.29 0-.547-.176-.996-.527-1.347L14.238.527z"/>
</svg>
