<svg xmlns="http://www.w3.org/2000/svg" width="21" height="17" viewBox="0 0 21 17">
    <path fill="#FFF" fill-rule="evenodd" d="M6.387.527A1.753 1.753 0 0 1 7.676 0c.508 0 .937.176 1.289.527.351.352.527.801.527 1.348s-.176.996-.527 1.348l-2.871 2.93h12.715c.507 0 .937.185 1.289.556.351.371.527.81.527 1.318s-.176.948-.527 1.319a1.708 1.708 0 0 1-1.29.556H6.095l2.812 2.93c.352.352.528.8.528 1.348 0 .547-.176.996-.528 1.347a1.72 1.72 0 0 1-1.26.528 1.72 1.72 0 0 1-1.26-.528L.528 9.317A1.753 1.753 0 0 1 0 8.026c0-.547.176-.996.527-1.347L6.387.527z"/>
</svg>
