<svg xmlns="http://www.w3.org/2000/svg" width="68" height="66" viewBox="0 0 68 66">
    <g fill="none" fill-rule="evenodd" stroke="#10A3E0" stroke-linecap="round" stroke-linejoin="round" stroke-width="2">
        <path d="M59.274 2.288h-1.425l-.001-.514 3.467-.001.002.514-1.435.001.003 4.163-.608.002zM65.782 4.394c-.034-.654-.078-1.438-.072-2.02h-.02a23.268 23.268 0 0 1-.591 1.775l-.821 2.273-.46.001-.756-2.23a19.756 19.756 0 0 1-.546-1.817h-.011a87.909 87.909 0 0 1-.09 2.069l-.122 2.004-.577.002.322-4.68h.77l.802 2.263c.192.577.353 1.09.473 1.576h.017a19.2 19.2 0 0 1 .492-1.578l.834-2.262.77-.002.293 4.678-.587.002-.12-2.054zM47.964 30.823c-.371.398-.316 1.292-.316 1.292l.014 19.515-7.148.008-.01-19.368s.06-1.045-.338-1.44c-.436-.434-1.592-.372-1.592-.372l-10.262.007-.005-6.916 32.256-.021.006 6.914-11.305.008s-.95.003-1.3.373"/>
        <path d="M10.378 64.281c-1.376 0-4.036-.01-6.41-2.276-2.237-2.137-2.168-4.611-2.17-6.06l-.024-36.667c-.002-1.171-.224-4.224 2.16-6.51 2.342-2.248 5.166-2.191 6.66-2.225l29.893-.021.006 6.914-29.847.022s-1.12-.105-1.59.291c-.427.364-.367 1.525-.367 1.525l.026 36.232s-.126.998.402 1.561c.4.425 1.49.304 1.49.304l29.912-.02.005 6.91-30.146.02z"/>
    </g>
</svg>
