<svg xmlns="http://www.w3.org/2000/svg" width="58" height="59" viewBox="0 0 58 59">
    <g fill="none" fill-rule="evenodd" stroke="#059FDF" stroke-width="2">
        <path d="M47.592 18.333l.002-.045C47.594 8.74 39.854 1 30.306 1c-7.999 0-14.71 5.44-16.683 12.816-.202-.01-.4-.031-.604-.031C6.381 13.785 1 19.166 1 25.805c0 6.636 5.381 12.017 12.02 12.017h33.676c5.394 0 9.768-4.372 9.768-9.767 0-5.093-3.897-9.27-8.872-9.722z"/>
        <path stroke-linejoin="round" d="M47.375 52.322H40V38"/>
        <path d="M28 38v16.163"/>
        <path stroke-linejoin="round" d="M18.412 38v9.752H12"/>
        <path d="M30.275 55.138a2.138 2.138 0 1 1-4.276-.002 2.138 2.138 0 0 1 4.276.002zM12.273 48.138a2.137 2.137 0 1 1-4.273 0 2.137 2.137 0 0 1 4.273 0zM51.273 52.138a2.137 2.137 0 1 1-4.273 0 2.137 2.137 0 0 1 4.273 0z"/>
    </g>
</svg>
