<svg xmlns="http://www.w3.org/2000/svg" width="53" height="57" viewBox="0 0 53 57">
    <g fill="none" fill-rule="evenodd" stroke="#10A3E0" stroke-linecap="round" stroke-linejoin="round" stroke-width="2">
        <path d="M2.415 51.911a3.126 3.126 0 0 1 0-4.42l27.076-27.075 4.42 4.42L6.833 51.91a3.125 3.125 0 0 1-4.419 0z"/>
        <path d="M30.648 11.481s-9.052-9.215-13-9.981l-.59.59s9.7 9.274 11.067 11.914l1.366 6.412 11.548 11.548 5.045-5.046-15.437-15.437zM24.744 52.277l1.333-5.645 6.667-1.728 2.833 8.971-2.666 1.458zM41.744 54.401v-9.497h9.333v5.77l-2.666 3.727zM39.41 42.767l-2.667-2.315v-5.808l1.334-1.811 4.833 4.886z"/>
    </g>
</svg>
