<svg xmlns="http://www.w3.org/2000/svg" width="61" height="68" viewBox="0 0 61 68">
    <g fill="none" fill-rule="evenodd" stroke="#10A3E0" stroke-width="2">
        <path d="M38.205 33.818c0 18.126-3.852 32.819-8.603 32.819-4.75 0-8.602-14.693-8.602-32.819C21 15.694 24.852 1 29.602 1s8.603 14.694 8.603 32.818z"/>
        <path d="M34.327 41.693C18.287 50.136 3.492 53.57 1.278 49.367c-2.211-4.203 8.996-14.456 25.035-22.899 16.04-8.441 30.834-11.878 33.047-7.674 2.214 4.205-8.994 14.456-25.033 22.899z"/>
        <path d="M26.313 41.693c16.04 8.443 30.834 11.878 33.048 7.674 2.213-4.203-8.996-14.456-25.034-22.899C18.288 18.027 3.492 14.59 1.28 18.794c-2.213 4.205 8.995 14.456 25.034 22.899z"/>
        <path d="M33.515 33.757a3.757 3.757 0 1 1-7.515 0 3.757 3.757 0 0 1 7.515 0zM38 20.675L48.675 10M47.585 7.585a1.996 1.996 0 1 1 2.823 2.822 1.996 1.996 0 0 1-2.823-2.822zM22.675 20.675L12 10M12.408 7.585a1.996 1.996 0 1 0-2.823 2.822 1.996 1.996 0 0 0 2.823-2.822z"/>
    </g>
</svg>
