<svg xmlns="http://www.w3.org/2000/svg" width="22" height="22" viewBox="0 0 22 22">
    <path fill="#FFF" fill-rule="nonzero" d="M17.875 0H4.125A4.126 4.126 0 0 0 0 4.125v13.75A4.126 4.126 0 0 0 4.125 22h13.75A4.126 4.126 0 0 0 22 17.875V4.125A4.126 4.126 0 0 0 17.875 0zM6.802 18.675H3.385l-.02-10.233h3.417l.02 10.233zM5.008 7.103h-.02c-1.118 0-1.838-.77-1.838-1.729 0-.981.744-1.725 1.88-1.725 1.138 0 1.835.744 1.858 1.725 0 .959-.724 1.73-1.88 1.73zm10.196 11.572v-5.56c0-1.345-.357-2.26-1.56-2.26-.919 0-1.414.618-1.652 1.216-.09.215-.113.509-.113.81v5.794H8.415l-.02-10.233h3.464l.02 1.444c.443-.684 1.18-1.653 2.945-1.653 2.188 0 3.824 1.428 3.824 4.499v5.943h-3.444z"/>
</svg>
