<svg xmlns="http://www.w3.org/2000/svg" width="69" height="65" viewBox="0 0 69 65">
    <g fill="none" fill-rule="evenodd" stroke="#10A3E0" stroke-linecap="round" stroke-linejoin="round" stroke-width="2">
        <path d="M61.262 6.059v-3.86h-1.316v-.475h3.208V2.2H61.83v3.86h-.568M67.492 1.722h-.531l-.772 2.096c-.14.393-.257.745-.353 1.076a6.47 6.47 0 0 0-.107.384h-.018l-.03-.123a18.48 18.48 0 0 0-.407-1.337l-.738-2.096h-.715l-.302 4.335h.534l.114-1.856c.04-.65.073-1.377.084-1.92h.015c.122.514.296 1.075.5 1.687l.704 2.064h.425l.762-2.103c.218-.59.4-1.14.548-1.648h.019v.158c0 .518.036 1.168.062 1.714l.112 1.904h.545l-.27-4.335h-.18M6.843 14.877c-.723 0-1.407.09-2.054.308a4.472 4.472 0 0 0-1.345.724 4.324 4.324 0 0 0-1.337 1.848c-.273.718-.38 1.49-.384 2.305v43.902h6.042V25.731l9.79 32.986v-.002c.222.755.48 1.438.788 2.055.458.923 1.033 1.707 1.799 2.292.38.286.803.515 1.258.673.453.154.934.23 1.41.23.636 0 1.276-.138 1.854-.41.437-.201.83-.477 1.181-.802.529-.488.958-1.08 1.316-1.755.36-.673.656-1.431.907-2.28l9.818-33.09v38.24h6.042V20.036c0-.722-.086-1.402-.294-2.046a4.58 4.58 0 0 0-.69-1.35 4.236 4.236 0 0 0-1.804-1.368c-.706-.282-1.467-.395-2.266-.395-.612 0-1.216.084-1.785.268a4.906 4.906 0 0 0-2.21 1.479c-.588.69-.998 1.513-1.278 2.436l-.002.006-10.804 36.293-10.772-36.287v.003a7.272 7.272 0 0 0-.719-1.697c-.456-.778-1.095-1.436-1.878-1.872-.774-.43-1.66-.629-2.56-.629h-.023M49.697 10.329a8.861 8.861 0 0 0-1.902 2.82c-.46 1.066-.738 2.245-.858 3.51l-.162 1.76h4.752l.1-.838.066-.582c.102-.857.282-1.563.524-2.122.18-.42.389-.761.621-1.04a3.194 3.194 0 0 1 1.293-.932c.536-.22 1.22-.348 2.077-.348.774 0 1.41.117 1.935.312a3.491 3.491 0 0 1 1.32.851c.376.384.652.82.845 1.36.195.538.31 1.186.31 1.97-.005.79-.138 1.422-.375 1.956-.24.537-.583.987-1.09 1.405-.293.237-.767.499-1.445.71-.661.209-1.51.378-2.531.48h-.12l-.244.04a9.105 9.105 0 0 0-2.615.846 8.636 8.636 0 0 0-2.19 1.604 8.577 8.577 0 0 0-1.945 3.013c-.43 1.131-.632 2.363-.632 3.67v2.477c0 .651.105 1.296.35 1.896.24.598.623 1.146 1.106 1.575a4.72 4.72 0 0 0 1.609.947c.59.211 1.216.296 1.856.296h12.373v-4.734H52.317c-.006-.001-.012-1.125-.019-3.373a4.84 4.84 0 0 1 .483-1.499c.23-.442.527-.807.91-1.133.397-.324.815-.56 1.31-.727a5.383 5.383 0 0 1 1.724-.257h.14c1.216 0 2.382-.225 3.443-.696 1.072-.465 2.025-1.177 2.825-2.078a8.957 8.957 0 0 0 1.765-2.928c.394-1.079.585-2.239.585-3.452 0-1.333-.195-2.58-.612-3.719a8.272 8.272 0 0 0-2.52-3.562 8.22 8.22 0 0 0-2.397-1.369c-1.14-.42-2.387-.616-3.72-.616-1.281 0-2.49.196-3.602.612a8.19 8.19 0 0 0-2.935 1.895z"/>
    </g>
</svg>
