<svg xmlns="http://www.w3.org/2000/svg" width="51" height="50" viewBox="0 0 51 50">
    <g fill="none" fill-rule="evenodd" stroke="#10A3E0" stroke-width="2">
        <path stroke-linecap="round" stroke-linejoin="round" d="M41.458 1.5l6.881 6.882L13.82 42.9 7.5 45.69l-6 2.65 5.438-12.32z"/>
        <path d="M4.03 42.607l3.277 3.276M44.899 4.94l-34.63 34.63"/>
        <path stroke-linecap="round" stroke-linejoin="round" d="M33.473 25.824L49.578 41.93l-6.41 6.411-16.502-16.504M17.631 22.802L2.75 7.919l1.644-1.644 1.561-1.56L9.158 1.51l14.94 14.94M41.143 46.216l3.205-3.205M33.928 39l3.206-3.203M26.714 31.787l3.205-3.205M12.285 17.358l3.205-3.205M5.072 10.144l3.205-3.205M39.236 44.309l2.008-2.01M37.506 42.579l2.01-2.008M35.778 40.85l2.009-2.008M32.05 37.123l2.008-2.009M30.322 35.395l2.008-2.01M28.593 33.665l2.008-2.008M17.68 22.753l2.008-2.01M15.95 21.024l2.009-2.009M14.222 19.295l2.008-2.008M10.495 15.568l2.008-2.008M8.766 13.839l2.008-2.008M7.037 12.11l2.008-2.008"/>
    </g>
</svg>
