<svg xmlns="http://www.w3.org/2000/svg" width="68" height="65" viewBox="0 0 68 65">
    <g fill="none" fill-rule="evenodd" stroke="#10A3E0" stroke-linecap="round" stroke-linejoin="round" stroke-width="2">
        <path d="M25.796 34.768c-1.957 1.751-4.572 2.68-8.185 2.691H8.318V17.798c.01-.56.122-.717.225-.842.105-.107.354-.287.953-.393h9.393c3.315.016 5.616.961 7.385 2.825a9.179 9.179 0 0 1 2.036 3.566c.364 1.179.555 2.519.56 4.056-.02 3.508-1.045 5.92-3.074 7.758zm9.11-13.32c-.742-2.536-2.045-4.772-3.907-6.611-3.076-3.068-7.22-4.598-12.024-4.598h-.07l-9.241-.035h-.038c-1.785 0-3.483.52-4.911 1.528-1.95 1.333-3.002 3.568-2.997 5.986v46.107h6.6V43.817h8.243c5.575 0 10.155-1.368 13.452-4.315 3.699-3.29 5.653-7.633 5.63-12.561.006-1.947-.24-3.788-.737-5.493zM43.792 17.476l-.007 2.125-.013 4.963 7.642-4.088v43.35h6.357V9.647zM58.919 1.676H57.47v-.524h3.52v.524h-1.452v4.231h-.62zM65.53 3.82c-.035-.663-.08-1.46-.07-2.054h-.022a26.764 26.764 0 0 1-.6 1.807l-.84 2.307h-.464l-.77-2.266a21.262 21.262 0 0 1-.55-1.848h-.015a62.61 62.61 0 0 1-.09 2.104l-.128 2.039h-.585l.331-4.755h.784l.812 2.3c.195.584.36 1.106.478 1.6h.02c.122-.48.29-1 .502-1.6l.846-2.3h.782l.297 4.755h-.598l-.12-2.09"/>
    </g>
</svg>
