<svg xmlns="http://www.w3.org/2000/svg" width="25" height="27" viewBox="0 0 25 27">
    <g fill="none" fill-rule="evenodd">
        <path stroke="#E74C3C" stroke-linecap="round" stroke-linejoin="round" stroke-width="2" d="M18.905 14.047V3.785L15.987 1H2.017C1.457 1 1 1.456 1 2.018v22.5c0 .562.456 1.018 1.018 1.018h15.87c.56 0 1.017-.456 1.017-1.018v-4.022"/>
        <path stroke="#E74C3C" stroke-linecap="round" stroke-linejoin="round" stroke-width="2" d="M16 1v2.918h2.918M11.005 20.233H22.39c.555 0 1.004-.45 1.004-1.004v-4.225c0-.554-.45-1.004-1.004-1.004H11.005C10.45 14 10 14.45 10 15.004v4.225c0 .555.45 1.004 1.005 1.004z"/>
        <path fill="#E74C3C" d="M12.818 17.658h.685c.17 0 .3-.044.39-.132a.481.481 0 0 0 .134-.359.465.465 0 0 0-.135-.357c-.09-.083-.218-.125-.385-.125h-.69v.973zM12 16h1.564c.41 0 .723.109.94.326a1.135 1.135 0 0 1 .336.841c0 .167-.028.32-.084.458a1.003 1.003 0 0 1-.235.356c-.103.1-.226.177-.37.232-.146.055-.31.083-.493.083h-.84v1.219H12V16zM17.356 18.834c.306 0 .533-.09.682-.273.15-.183.225-.443.225-.78 0-.334-.075-.6-.225-.8-.15-.2-.372-.3-.668-.3h-.562v2.153h.548zM16 16h1.464c.246 0 .469.042.669.127.2.085.37.205.512.36.142.154.25.341.327.562.075.22.113.465.113.732 0 .262-.036.498-.11.71a1.475 1.475 0 0 1-.32.546 1.445 1.445 0 0 1-.525.353 1.915 1.915 0 0 1-.713.125H16V16z"/>
        <path fill="#E74C3C" d="M19 16h2.579v.685h-1.776v.765h1.483v.657h-1.483v1.408H19z"/>
        <path stroke="#E74C3C" stroke-linecap="round" stroke-linejoin="round" stroke-width="2" d="M4 10h11.887M4 15h4.426M4 21h4.426"/>
    </g>
</svg>
