<svg xmlns="http://www.w3.org/2000/svg" width="57" height="81" viewBox="0 0 57 81">
    <g fill="none" fill-rule="evenodd" stroke="#10A3E0" stroke-linecap="round" stroke-linejoin="round" stroke-width="2">
        <path d="M43.219 73.25H5.552V11.583h45V66.25z"/>
        <path d="M43.219 73.25v-7.333h7.333M38.094 20.875l2.313 2.313 4.687-4.688M12.094 20.844h20.75M38.094 33.875l2.313 2.313 4.687-4.688M12.094 33.844h20.75M38.094 46.875l2.313 2.313 4.687-4.688M12.094 46.844h20.75M38.094 59.875l2.313 2.313 4.687-4.688M12.094 59.844h20.75"/>
        <path d="M38.275 6.125h12.18a4.936 4.936 0 0 1 4.92 4.921v63.658a4.936 4.936 0 0 1-4.92 4.921H5.92a4.936 4.936 0 0 1-4.92-4.921V11.046a4.936 4.936 0 0 1 4.92-4.921h12.017"/>
        <path d="M34.438 9h-12.5c-2.2 0-4-1.8-4-4s1.8-4 4-4h12.5c2.2 0 4 1.8 4 4s-1.8 4-4 4z"/>
    </g>
</svg>
