<svg xmlns="http://www.w3.org/2000/svg" width="56" height="67" viewBox="0 0 56 67">
    <g fill="none" fill-rule="evenodd" stroke="#10A3E0" stroke-linecap="round" stroke-linejoin="round" stroke-width="2">
        <path d="M54.631 38.671c0 14.651-11.877 26.529-26.529 26.529-14.65 0-26.527-11.878-26.527-26.529S13.45 12.143 28.102 12.143c14.652 0 26.53 11.877 26.53 26.528z"/>
        <path d="M50.658 38.671c0 12.457-10.099 22.555-22.556 22.555-12.456 0-22.554-10.098-22.554-22.555 0-12.457 10.098-22.555 22.554-22.555 12.457 0 22.556 10.098 22.556 22.555z"/>
        <path d="M29.124 21.442a1.02 1.02 0 1 1-2.042.001 1.02 1.02 0 0 1 2.042-.001zM16.641 25.766c.4.399.4 1.046 0 1.443a1.02 1.02 0 1 1 0-1.443zM10.873 37.65a1.021 1.021 0 1 1 0 2.043 1.021 1.021 0 0 1 0-2.043zM15.197 50.132a1.021 1.021 0 1 1 1.444 1.445 1.021 1.021 0 0 1-1.444-1.445zM27.082 55.9a1.021 1.021 0 1 1 0 0zM39.564 51.576a1.021 1.021 0 1 1 1.445-1.444 1.021 1.021 0 0 1-1.445 1.444zM45.332 39.692a1.021 1.021 0 1 1 0-2.043 1.021 1.021 0 0 1 0 2.043zM41.008 27.21a1.021 1.021 0 1 1-1.444-1.445 1.021 1.021 0 0 1 1.444 1.445zM30.06 38.671a1.957 1.957 0 1 1-3.916-.002 1.957 1.957 0 0 1 3.915.002z"/>
        <path d="M28.749 36.714h-1.293l.647-10.226zM26.622 12.143h2.968V5.309h-2.968zM24.048 5.309h8.117V1.575h-8.117zM14.396 15.922l-1.677 1.114-2.563-3.864 1.678-1.112zM13.289 11.093l-4.59 3.044-1.4-2.11 4.59-3.044zM41.767 15.922l1.678 1.114 1.682-2.536-1.677-1.113z"/>
        <path d="M41.994 12.422l4.589 3.043 1.4-2.11-4.588-3.044z"/>
    </g>
</svg>
