<svg xmlns="http://www.w3.org/2000/svg" width="22" height="18" viewBox="0 0 22 18">
    <path fill="#FFF" fill-rule="nonzero" d="M21.878 2.178a8.923 8.923 0 0 1-2.552.7A4.467 4.467 0 0 0 21.279.42c-.859.509-1.81.879-2.822 1.077a4.443 4.443 0 0 0-7.57 4.052A12.614 12.614 0 0 1 1.733.907a4.426 4.426 0 0 0-.602 2.237c0 1.54.784 2.9 1.977 3.696a4.404 4.404 0 0 1-2.013-.556v.057a4.447 4.447 0 0 0 3.563 4.356 4.404 4.404 0 0 1-1.17.155c-.287 0-.565-.026-.836-.08a4.444 4.444 0 0 0 4.148 3.085 8.891 8.891 0 0 1-5.517 1.9c-.36 0-.71-.02-1.057-.06a12.572 12.572 0 0 0 6.809 1.994c8.17 0 12.64-6.77 12.64-12.636 0-.195-.004-.387-.014-.579a8.886 8.886 0 0 0 2.218-2.297"/>
</svg>
