<svg xmlns="http://www.w3.org/2000/svg" width="28" height="21" viewBox="0 0 28 21">
    <path fill="#FFF" fill-rule="nonzero" d="M27.218 3.61c-.258-1.444-1.492-2.495-2.923-2.823C22.153.328 18.19 0 13.901 0 9.615 0 5.588.328 3.444.787 2.014 1.115.779 2.099.52 3.609.26 5.25 0 7.547 0 10.5s.259 5.25.584 6.89c.261 1.444 1.494 2.495 2.923 2.823 2.274.459 6.171.787 10.46.787 4.289 0 8.186-.328 10.46-.787 1.429-.328 2.662-1.312 2.923-2.822.26-1.641.584-4.005.65-6.891-.132-2.953-.457-5.25-.782-6.89zM10.394 15.093V5.906L18.32 10.5l-7.925 4.594z"/>
</svg>
