<svg xmlns="http://www.w3.org/2000/svg" width="32" height="24" viewBox="0 0 32 24">
    <path fill="#888" fill-rule="nonzero" d="M31.107 4.125c-.296-1.65-1.706-2.85-3.341-3.226C25.318.375 20.788 0 15.886 0c-4.897 0-9.5.375-11.95.9C2.302 1.273.89 2.4.594 4.124.295 6 0 8.625 0 12s.296 6 .667 7.875c.299 1.65 1.708 2.85 3.341 3.226 2.598.524 7.053.899 11.954.899 4.902 0 9.356-.375 11.955-.9 1.632-.374 3.042-1.5 3.34-3.225.296-1.875.668-4.576.743-7.875-.15-3.375-.522-6-.893-7.875zM11.879 17.25V6.75L20.936 12l-9.057 5.25z"/>
</svg>
